<svg width="90" height="125" viewBox="0 0 90 125" fill="none" xmlns="http://www.w3.org/2000/svg">
<path d="M86.8752 115.881L89.7698 114.2L89.9999 31.5269L87.1107 33.2076L86.8752 115.881Z" fill="#BEBEBE"/>
<path d="M87.1107 33.2074L89.9999 31.5266L35.8111 0.223633L32.9165 1.9044L87.1107 33.2074Z" fill="#F3F3F3"/>
<path d="M32.9166 1.9043L32.6865 84.5778L86.8753 115.881L87.1108 33.2073L32.9166 1.9043Z" fill="#DCDCDC"/>
<path d="M79.321 120.415L82.2103 118.734L82.4457 36.0605L79.5511 37.7413L79.321 120.415Z" fill="#BEBEBE"/>
<path d="M79.5511 37.7411L82.4457 36.0603L28.2515 4.75732L25.3623 6.43809L79.5511 37.7411Z" fill="#F3F3F3"/>
<path d="M25.3624 6.43799L25.127 89.1115L79.3211 120.415L79.5512 37.741L25.3624 6.43799Z" fill="#DCDCDC"/>
<path d="M71.6431 124.777L74.5323 123.096L74.7677 40.4229L71.8785 42.1036L71.6431 124.777Z" fill="#BEBEBE"/>
<path d="M71.8785 42.1034L74.7677 40.4226L20.5735 9.11963L17.6843 10.8004L71.8785 42.1034Z" fill="#F3F3F3"/>
<path d="M17.6844 10.8003L17.449 93.4738L71.6431 124.777L71.8786 42.1033L17.6844 10.8003Z" fill="#DCDCDC"/>
<path d="M20.9965 55.4697L20.9805 60.4371L68.2994 87.7683L68.3154 82.8063L20.9965 55.4697Z" fill="#C2C2C2"/>
<path d="M21.0551 34.2993L21.0391 39.2667L68.3633 66.5979L68.374 61.6306L21.0551 34.2993Z" fill="#C2C2C2"/>
<path d="M36.4106 32.5596L36.3999 37.5269L68.3899 56.0047L68.406 51.0373L36.4106 32.5596Z" fill="#A8A8A8"/>
<path d="M21.0229 44.8926L21.0122 49.8599L68.3311 77.1912L68.3418 72.2238L21.0229 44.8926Z" fill="#C2C2C2"/>
<path d="M20.9321 76.6611L20.9214 81.6232L68.2403 108.96L68.2564 103.992L20.9321 76.6611Z" fill="#C2C2C2"/>
<path d="M20.964 66.0679L20.948 71.0299L68.2723 98.3665L68.283 93.3991L20.964 66.0679Z" fill="#C2C2C2"/>
<path d="M19.4139 89.7231C20.1651 87.656 18.5025 85.154 15.7005 84.1348C12.8984 83.1156 10.0179 83.9651 9.26667 86.0321C8.51546 88.0992 10.178 90.6011 12.9801 91.6204C15.7822 92.6396 18.6627 91.7901 19.4139 89.7231Z" fill="#75D391"/>
<path d="M0.0388179 112.578C-0.0429114 112.057 0.00486246 111.524 0.177925 111.026L9.2736 86.0176C7.78619 91.1348 17.2992 94.582 19.4394 89.7163L10.3437 114.724C10.1687 115.163 9.9042 115.561 9.56703 115.892C9.22985 116.223 8.82743 116.48 8.38544 116.646C5.23406 117.909 0.729019 116.036 0.0388179 112.578Z" fill="url(#paint0_linear_338_3821)"/>
<path d="M20.1372 82.6032C20.6441 81.2085 19.5241 79.521 17.6356 78.8341C15.7472 78.1472 13.8055 78.721 13.2986 80.1158C12.7917 81.5105 13.9117 83.1979 15.8001 83.8848C17.6886 84.5717 19.6303 83.9979 20.1372 82.6032Z" fill="url(#paint1_linear_338_3821)"/>
<path d="M10.9749 87.2971V87.174C10.9749 87.174 10.9749 87.1419 10.9749 87.1258V87.0563C10.9724 87.0224 10.9724 86.9884 10.9749 86.9546C10.9722 86.9314 10.9722 86.9081 10.9749 86.885V86.8047C10.9749 86.7244 10.9749 86.6441 11.007 86.5692C11.0216 86.5058 11.0395 86.4433 11.0605 86.3818C11.058 86.3712 11.058 86.3602 11.0605 86.3497V86.3122L13.3237 80.0977C13.3214 80.119 13.3214 80.1405 13.3237 80.1619C13.3237 80.2261 13.2863 80.285 13.2702 80.3492C13.2542 80.4135 13.2702 80.3813 13.2702 80.3921C13.2543 80.4716 13.2435 80.552 13.2381 80.6329C13.2408 80.6596 13.2408 80.6865 13.2381 80.7132V80.8792C13.2405 80.9023 13.2405 80.9256 13.2381 80.9487C13.2381 80.9487 13.2381 80.9969 13.2381 81.0183V81.1415V81.2164C13.2356 81.2538 13.2356 81.2914 13.2381 81.3288C13.2381 81.3556 13.2381 81.3823 13.2381 81.4091L13.2702 81.5108C13.2774 81.5398 13.2864 81.5684 13.297 81.5964C13.3071 81.6294 13.3196 81.6616 13.3344 81.6928L13.3665 81.7784L13.4147 81.8748C13.4147 81.9015 13.4414 81.9283 13.4521 81.9604L13.511 82.0568L13.5538 82.1371C13.5538 82.1745 13.6019 82.2066 13.6233 82.2388L13.6715 82.3137L13.7517 82.4208C13.7679 82.4452 13.7858 82.4685 13.8052 82.4903L13.9016 82.6081L13.9497 82.6616L14.1102 82.8329L14.351 83.0524L14.4152 83.1006L14.5757 83.2237C14.6347 83.2713 14.6973 83.3143 14.763 83.3521L14.8914 83.4378L15.0519 83.5288C15.1018 83.5605 15.1536 83.5891 15.2071 83.6144L15.3515 83.6894L15.5174 83.7643L15.6672 83.8232L15.8384 83.8874L15.9989 83.9356L16.1648 83.9891L16.3467 84.0319L16.5072 84.0641L16.7373 84.1069H16.8871H16.9673H17.2081H17.6361H17.8769H17.9625L18.1979 84.0641H18.2514C18.3437 84.0441 18.4348 84.0191 18.5243 83.9891H18.5885L18.7918 83.9142L18.8667 83.8821C18.9523 83.8392 19.0326 83.8018 19.1128 83.7536C19.5723 83.5074 19.9261 83.1021 20.108 82.6135L17.8769 88.7638C17.637 89.3275 17.1939 89.7804 16.6356 90.0324L16.5607 90.0645L16.3574 90.1395H16.2932L16.0203 90.2144H15.9668L15.7314 90.2519H15.6458H15.405H14.977C14.8986 90.2574 14.8199 90.2574 14.7416 90.2519H14.6025H14.5062L14.2761 90.2144H14.2119H14.1156L13.9337 90.1716H13.8641L13.7678 90.1395L13.6073 90.0859H13.5377L13.4361 90.0431L13.2863 89.9842L13.2274 89.9575L13.1204 89.9093L12.9759 89.8343L12.9171 89.8076L12.8208 89.7541L12.6656 89.6631L12.6068 89.6309L12.5319 89.5774L12.3446 89.4436L12.2804 89.4008L12.1841 89.3205L12.1199 89.2723L11.9059 89.0742H11.8791L11.7186 88.9083L11.6704 88.8494L11.5741 88.7317C11.5534 88.7109 11.5354 88.6875 11.5206 88.6621L11.4404 88.5604L11.3922 88.4855C11.3689 88.451 11.3474 88.4152 11.328 88.3784L11.2799 88.3034L11.2264 88.2018C11.21 88.1762 11.1957 88.1493 11.1836 88.1215L11.1354 88.0198L11.1033 87.9341C11.0885 87.9029 11.076 87.8707 11.0658 87.8378C11.0545 87.81 11.0456 87.7814 11.0391 87.7521L11.007 87.6558C11.0051 87.6416 11.0051 87.6272 11.007 87.613C11.0077 87.6005 11.0077 87.588 11.007 87.5755C11.007 87.5327 11.007 87.4952 11.007 87.4577L10.9749 87.2971Z" fill="url(#paint2_linear_338_3821)"/>
<path d="M4.08364 66.5497C3.38809 63.0811 4.00339 58.3386 6.26126 56.3795C6.7963 55.6568 13.5966 51.9848 14.4741 51.4067C7.98408 55.5926 11.4832 67.1225 15.2232 72.6572C18.4067 77.6567 25.5708 84.6689 31.9164 81.4412L24.8646 85.5414C24.2722 85.884 23.6265 86.1247 22.9545 86.2533C18.4227 86.9813 14.2869 83.9088 11.3013 80.8149C7.58904 76.8428 5.08533 71.8945 4.08364 66.5497Z" fill="url(#paint3_linear_338_3821)"/>
<path d="M30.3166 77.7049C29.7281 69.3652 25.2819 61.3682 18.8828 56.0583C15.4211 53.2909 10.349 50.834 6.07935 53.2106L13.1365 49.1104C13.972 48.6289 14.8968 48.323 15.8545 48.2111C22.7672 47.6758 28.8827 53.8797 32.3873 59.2432C36.6997 65.6129 40.7178 78.9306 33.254 83.7481L26.1968 87.8484C28.9737 86.3978 30.6484 82.1316 30.3166 77.7049Z" fill="url(#paint4_linear_338_3821)"/>
<path d="M30.3433 78.7327C30.3166 87.7521 23.9229 91.392 16.0899 86.8582C8.25689 82.3244 1.91132 71.3351 1.93807 62.3264C1.96482 53.3177 8.35855 49.6671 16.1862 54.2009C24.0138 58.7347 30.3701 69.7186 30.3433 78.7327ZM16.0952 84.6957C22.8902 88.6192 28.4386 85.4558 28.46 77.6461C28.4814 69.8364 22.9544 60.2924 16.1755 56.3634C9.39653 52.4345 3.83746 55.6033 3.81606 63.413C3.79466 71.2227 9.30557 80.7721 16.122 84.6957" fill="url(#paint5_linear_338_3821)"/>
<g opacity="0.25">
<path d="M16.1759 56.3637C9.38624 52.4401 3.83787 55.6036 3.81647 63.4133C3.79507 71.223 9.30598 80.7724 16.1224 84.6959C22.9388 88.6195 28.4658 85.456 28.4872 77.6464C28.5086 69.8367 22.9548 60.2927 16.1759 56.3637Z" fill="url(#paint6_linear_338_3821)"/>
</g>
<defs>
<linearGradient id="paint0_linear_338_3821" x1="14.1906" y1="104.094" x2="4.03451" y2="100.398" gradientUnits="userSpaceOnUse">
<stop stop-color="#9EEAB4"/>
<stop offset="0.04" stop-color="#75D391"/>
<stop offset="0.13" stop-color="#58C277"/>
<stop offset="0.23" stop-color="#3CB15E"/>
<stop offset="0.35" stop-color="#24A148"/>
<stop offset="1" stop-color="#BEFDD0"/>
</linearGradient>
<linearGradient id="paint1_linear_338_3821" x1="20.1782" y1="80.6286" x2="13.1025" y2="80.6168" gradientUnits="userSpaceOnUse">
<stop stop-color="#A2A2A2"/>
<stop offset="0.22" stop-color="#949494"/>
<stop offset="0.49" stop-color="#8C8C8C"/>
<stop offset="1" stop-color="#8A8A8A"/>
</linearGradient>
<linearGradient id="paint2_linear_338_3821" x1="20.1401" y1="85.2042" x2="10.9481" y2="85.2042" gradientUnits="userSpaceOnUse">
<stop stop-color="#BEBEBE"/>
<stop offset="0.09" stop-color="#B1B1B1"/>
<stop offset="0.2" stop-color="#A7A7A7"/>
<stop offset="0.35" stop-color="#A4A4A4"/>
<stop offset="1" stop-color="#DCDCDC"/>
</linearGradient>
<linearGradient id="paint3_linear_338_3821" x1="23.2488" y1="86.3229" x2="8.30492" y2="54.2863" gradientUnits="userSpaceOnUse">
<stop stop-color="#BEBEBE"/>
<stop offset="0.43" stop-color="#A4A4A4"/>
<stop offset="0.79" stop-color="#6F6F6F"/>
<stop offset="0.91" stop-color="#717171"/>
<stop offset="0.96" stop-color="#787878"/>
<stop offset="0.99" stop-color="#838383"/>
<stop offset="1" stop-color="#8C8C8C"/>
</linearGradient>
<linearGradient id="paint4_linear_338_3821" x1="32.735" y1="84.8026" x2="15.5424" y2="47.9547" gradientUnits="userSpaceOnUse">
<stop stop-color="#BEBEBE"/>
<stop offset="0.01" stop-color="#B8B8B8"/>
<stop offset="0.04" stop-color="#ADADAD"/>
<stop offset="0.09" stop-color="#A6A6A6"/>
<stop offset="0.21" stop-color="#A4A4A4"/>
<stop offset="0.57" stop-color="#DCDCDC"/>
<stop offset="1" stop-color="#F3F3F3"/>
</linearGradient>
<linearGradient id="paint5_linear_338_3821" x1="1.93807" y1="70.5322" x2="30.3433" y2="70.5322" gradientUnits="userSpaceOnUse">
<stop stop-color="#DCDCDC"/>
<stop offset="1" stop-color="#BEBEBE"/>
</linearGradient>
<linearGradient id="paint6_linear_338_3821" x1="3.81647" y1="70.5325" x2="28.4604" y2="70.5325" gradientUnits="userSpaceOnUse">
<stop stop-color="#24A148"/>
<stop offset="1" stop-color="#0E6027"/>
</linearGradient>
</defs>
</svg>
