<svg width="14" height="13" viewBox="0 0 14 13" fill="none" xmlns="http://www.w3.org/2000/svg">
<path d="M10.5 12H7V13H10.5V12Z" fill="#161616"/>
<path d="M14 10H7V11H14V10Z" fill="#161616"/>
<path d="M14 8H7V9H14V8Z" fill="#161616"/>
<path d="M1 8V9H3.293L0 12.293L0.707 13L4 9.707V12H5V8H1Z" fill="#161616"/>
<path d="M13 2H7L5.29295 0.29295C5.10539 0.105415 4.85103 4.20369e-05 4.5858 0H1C0.734784 0 0.48043 0.105357 0.292893 0.292893C0.105357 0.48043 0 0.734784 0 1V7H1V1H4.5858L6.5858 3H13V7H14V3C14 2.73478 13.8946 2.48043 13.7071 2.29289C13.5196 2.10536 13.2652 2 13 2Z" fill="#161616"/>
</svg>
