<svg width="20" height="20" viewBox="0 0 20 20" fill="none" xmlns="http://www.w3.org/2000/svg">
<path d="M18.6769 7.51441C19.2689 7.32561 19.589 7.54961 19.621 7.68241C19.749 8.30881 19.813 8.95121 19.813 9.60001C19.813 11.4984 19.253 13.3544 18.197 14.9336C17.141 16.512 15.645 17.7424 13.885 18.4696C12.133 19.196 10.205 19.3856 8.34101 19.0152C6.47701 18.6448 4.773 17.7312 3.429 16.388C2.085 15.0456 1.17296 13.3352 0.796965 11.4728C0.428965 9.61041 0.621016 7.6808 1.34902 5.9264C2.06902 4.172 3.30095 2.67281 4.88495 1.6176C6.46095 0.563203 8.31698 0 10.213 0C12.757 0.0024 15.197 1.01521 16.997 2.81521C17.821 3.63681 18.3889 4.47359 18.8609 5.51199C18.9089 5.61759 18.957 5.94402 18.397 6.22562C17.813 6.51842 17.4289 6.14481 17.3809 6.03441C17.205 5.67281 17.0929 5.49121 16.8689 5.15521C15.9889 3.84 14.7409 2.81439 13.2769 2.20879C11.8129 1.60319 10.2049 1.44479 8.65292 1.75359C7.10092 2.06239 5.67693 2.82399 4.55693 3.94319C3.43693 5.06159 2.67693 6.48722 2.36493 8.03922C2.06093 9.59122 2.22099 11.2 2.82099 12.6616C3.42899 14.1232 4.45294 15.3728 5.77294 16.252C7.08494 17.1312 8.62898 17.6 10.213 17.6C12.333 17.5976 14.3729 16.7544 15.8689 15.2544C17.3649 13.7544 18.213 11.7208 18.213 9.60001C18.213 9.14481 18.173 8.692 18.101 8.2472C18.077 8.1232 18.1249 7.68961 18.6769 7.51441Z" fill="white"/>
</svg>
