<svg width="18" height="19" viewBox="0 0 18 19" fill="none" xmlns="http://www.w3.org/2000/svg">
<path d="M16.9419 12.0581L15.25 10.3662V8.125C15.248 6.57622 14.6718 5.08319 13.6328 3.93462C12.5938 2.78605 11.1658 2.06352 9.625 1.90675V0.625H8.375V1.90675C6.83417 2.06352 5.4062 2.78605 4.36721 3.93462C3.32822 5.08319 2.75201 6.57622 2.75 8.125V10.3662L1.05806 12.0581C0.940867 12.1753 0.875019 12.3343 0.875 12.5V14.375C0.875 14.5408 0.940848 14.6997 1.05806 14.8169C1.17527 14.9342 1.33424 15 1.5 15H5.875V15.4855C5.86145 16.2784 6.14095 17.0483 6.65993 17.6479C7.17891 18.2475 7.90088 18.6344 8.6875 18.7347C9.12197 18.7778 9.56065 18.7295 9.97532 18.5929C10.39 18.4563 10.7715 18.2344 11.0953 17.9415C11.419 17.6486 11.6779 17.2912 11.8553 16.8922C12.0326 16.4933 12.1245 16.0616 12.125 15.625V15H16.5C16.6658 15 16.8247 14.9342 16.9419 14.8169C17.0592 14.6997 17.125 14.5408 17.125 14.375V12.5C17.125 12.3343 17.0591 12.1753 16.9419 12.0581ZM10.875 15.625C10.875 16.1223 10.6775 16.5992 10.3258 16.9508C9.97419 17.3025 9.49728 17.5 9 17.5C8.50272 17.5 8.02581 17.3025 7.67417 16.9508C7.32254 16.5992 7.125 16.1223 7.125 15.625V15H10.875V15.625ZM15.875 13.75H2.125V12.7588L3.81687 11.0669C3.93409 10.9497 3.99996 10.7907 4 10.625V8.125C4 6.79892 4.52678 5.52715 5.46447 4.58947C6.40215 3.65178 7.67392 3.125 9 3.125C10.3261 3.125 11.5979 3.65178 12.5355 4.58947C13.4732 5.52715 14 6.79892 14 8.125V10.625C14 10.7907 14.0659 10.9497 14.1831 11.0669L15.875 12.7588V13.75Z" fill="#F4F4F4"/>
</svg>
