<svg width="17" height="19" viewBox="0 0 17 19" fill="none" xmlns="http://www.w3.org/2000/svg">
<path fill-rule="evenodd" clip-rule="evenodd" d="M16.3256 10.3528L16.4791 10.9037C16.6325 11.4466 16.6544 12.0166 16.5521 12.5697C16.4425 13.1229 16.2087 13.6446 15.8726 14.0925C15.5292 14.5412 15.0908 14.9043 14.5866 15.1549C14.0824 15.4048 13.5271 15.5349 12.9644 15.5349H12.3506C12.1825 16.3613 11.7368 17.1037 11.0792 17.6371C10.4288 18.1706 9.61043 18.4614 8.77012 18.4614C7.92251 18.4614 7.11148 18.1706 6.45385 17.6371C5.80353 17.1037 5.35781 16.3613 5.18975 15.5349H4.37137C3.83065 15.5349 3.2899 15.4121 2.79303 15.1754C2.30346 14.9387 1.86504 14.5945 1.52161 14.1678C1.17818 13.7411 0.937072 13.2427 0.812852 12.71C0.688633 12.1766 0.688626 11.6228 0.805538 11.0886L1.87965 6.25498C2.21577 4.77239 3.0268 3.44254 4.20323 2.47655C5.37235 1.51129 6.8338 0.964692 8.35366 0.925234C9.87352 0.885046 11.3569 1.3542 12.5771 2.25735C13.8047 3.1605 14.6888 4.44576 15.0907 5.90863L15.3173 6.68464C15.3757 6.87024 15.3538 7.07044 15.2588 7.2407C15.1711 7.41095 15.0103 7.53738 14.8277 7.59218C14.6377 7.64698 14.4404 7.62506 14.2723 7.533C14.097 7.4402 13.9728 7.28309 13.9216 7.09749L13.6878 6.29958C13.3663 5.15018 12.6721 4.14109 11.7149 3.43158C10.7503 2.72207 9.58127 2.35379 8.39023 2.38521C7.19918 2.4159 6.05192 2.84553 5.13124 3.604C4.21055 4.36247 3.56754 5.4074 3.3118 6.57141L2.23769 11.4057C2.16462 11.7265 2.16462 12.059 2.23769 12.3783C2.31076 12.6983 2.45686 12.9972 2.66146 13.2529C2.87336 13.5094 3.12915 13.7155 3.42873 13.858C3.72101 13.9997 4.04986 14.0735 4.37137 14.0735H12.9644C13.3006 14.075 13.6366 13.9975 13.9362 13.847C14.2358 13.6972 14.4988 13.478 14.7034 13.2076C14.9153 12.9395 15.0542 12.6267 15.12 12.295C15.1784 11.9625 15.1638 11.6206 15.0761 11.2947L14.8861 10.6312H14.8934C14.8715 10.4748 14.908 10.3148 14.9884 10.1767C15.0834 10.0093 15.2442 9.88657 15.4269 9.83615C15.6169 9.78646 15.8141 9.8128 15.9821 9.90925C16.1502 10.0064 16.2745 10.1657 16.3256 10.3528ZM6.49033 15.5517C6.48303 15.5408 10.8527 15.5042 10.8454 15.5181C10.6116 16.4636 9.69088 17.1256 8.66059 17.1256C7.65222 17.1256 6.8703 16.4351 6.49033 15.5517Z" fill="white"/>
</svg>
