<svg width="18" height="18" viewBox="0 0 18 18" fill="none" xmlns="http://www.w3.org/2000/svg">
<path d="M9 4C8.38194 4 7.77775 4.18328 7.26385 4.52666C6.74994 4.87004 6.3494 5.3581 6.11288 5.92911C5.87636 6.50013 5.81447 7.12847 5.93505 7.73466C6.05563 8.34085 6.35326 8.89767 6.7903 9.33471C7.22733 9.77175 7.78416 10.0694 8.39035 10.19C8.99654 10.3105 9.62487 10.2486 10.1959 10.0121C10.7669 9.7756 11.255 9.37506 11.5983 8.86116C11.9417 8.34725 12.125 7.74307 12.125 7.125C12.125 6.2962 11.7958 5.50134 11.2097 4.91529C10.6237 4.32924 9.82881 4 9 4Z" fill="#FFF"/>
<path d="M9 0.25C7.26942 0.25 5.57769 0.763179 4.13876 1.72464C2.69983 2.6861 1.57832 4.05267 0.916058 5.65152C0.253791 7.25037 0.080512 9.00971 0.418133 10.707C0.755753 12.4044 1.58911 13.9635 2.81282 15.1872C4.03653 16.4109 5.59563 17.2442 7.29296 17.5819C8.9903 17.9195 10.7496 17.7462 12.3485 17.0839C13.9473 16.4217 15.3139 15.3002 16.2754 13.8612C17.2368 12.4223 17.75 10.7306 17.75 9C17.7474 6.68016 16.8247 4.45608 15.1843 2.8157C13.5439 1.17533 11.3198 0.252614 9 0.25ZM13.9953 14.5786C13.9829 13.7588 13.6488 12.9766 13.0652 12.4008C12.4815 11.8249 11.6949 11.5014 10.875 11.5H7.125C6.30507 11.5014 5.5185 11.8249 4.93483 12.4008C4.35116 12.9766 4.01712 13.7588 4.00469 14.5786C2.87129 13.5666 2.07202 12.2342 1.71271 10.7578C1.3534 9.28141 1.451 7.73071 1.99259 6.31104C2.53418 4.89136 3.4942 3.66967 4.74555 2.80773C5.99689 1.94579 7.48053 1.48427 9 1.48427C10.5195 1.48427 12.0031 1.94579 13.2545 2.80773C14.5058 3.66967 15.4658 4.89136 16.0074 6.31104C16.549 7.73071 16.6466 9.28141 16.2873 10.7578C15.928 12.2342 15.1287 13.5666 13.9953 14.5786Z" fill="#FFF"/>
</svg>
